<svg enable-background="new 0 0 20 20" viewBox="0 0 20 20" xmlns="http://www.w3.org/2000/svg"><path d="m17.9 9.4h-8.5v1.2h8.5l-2.1 2.1.9.9 3.1-3.1c.2-.2.2-.6 0-.9l-3.1-3.1-.9.9z" fill="#222222"/><path d="m8.1 19.4v-6.2c0-.3-.3-.6-.6-.6h-3.1-1.3c0 .7.6 1.2 1.2 1.2h2.5v5h-3.7c-1 .1-1.8-.7-1.9-1.7 0-.1 0-.1 0-.2v-13.8c0-1 .8-1.8 1.7-1.8h.2 3.7v5h-2.4c-.7 0-1.2.6-1.2 1.2h4.4c.3 0 .6-.3.6-.6v-6.3c-.1-.3-.4-.6-.7-.6h-4.4c-1.6-.1-3 1.2-3.1 2.9v.2 13.7c-.1 1.7 1.2 3.1 2.9 3.1h.2 4.4c.3.1.6-.2.6-.5z" fill="#222222"/></svg>
